<svg xmlns="http://www.w3.org/2000/svg" viewBox="0 0 32 32"><path fill="#595bd4" d="M16 24c-2.2 0-4-1.8-4-4v-2.5c0-.3.2-.5.5-.5s.5.2.5.5V20c0 1.7 1.3 3 3 3s3-1.3 3-3v-2.5c0-.3.2-.5.5-.5s.5.2.5.5V20c0 2.2-1.8 4-4 4z" class="color4f5266 svgShape"/><path fill="#595bd4" d="M16 19c-3.9 0-7-3.1-7-7V9.5c0-.3.2-.5.5-.5s.5.2.5.5V12c0 3.3 2.7 6 6 6s6-2.7 6-6V9.5c0-.3.2-.5.5-.5s.5.2.5.5V12c0 3.9-3.1 7-7 7zm12.5 13h-25c-.3 0-.5-.2-.5-.5v-4.4c0-2.4 1.5-4.5 3.8-5.2l5.6-1.9h.4c.1.1.2.2.2.4.2 1.5 1.5 2.5 3 2.5s2.7-1.1 3-2.5c0-.1.1-.3.2-.4.1-.1.3-.1.4 0l5.6 1.9c2.3.7 3.8 2.8 3.8 5.2v4.4c0 .3-.2.5-.5.5zM4 31h24v-3.9c0-1.9-1.2-3.7-3.1-4.3l-5.1-1.7c-.5 1.7-2 2.8-3.8 2.8-1.8 0-3.3-1.2-3.8-2.8l-5.1 1.7c-1.9.6-3.1 2.4-3.1 4.3V31z" class="color4f5266 svgShape"/><path fill="#595bd4" d="M28.5 32h-6c-.3 0-.5-.2-.5-.5v-1c0-3.3 2.5-6.1 5.7-6.4.2 0 .4.1.5.2.5.9.8 1.8.8 2.8v4.4c0 .3-.2.5-.5.5zM23 31h5v-3.9c0-.7-.2-1.4-.5-2-2.6.5-4.5 2.7-4.5 5.4v.5zM9.5 32h-6c-.3 0-.5-.2-.5-.5v-4.4c0-1 .3-2 .8-2.8.1-.2.3-.3.5-.3 3.3.4 5.7 3.2 5.7 6.4v1c0 .4-.2.6-.5.6zM4 31h5v-.5c0-2.7-1.9-4.9-4.5-5.4-.3.6-.5 1.3-.5 2V31zm18.5-21H22c-.8 0-1.5-.7-1.5-1.5v-2c0-.3-.2-.5-.5-.5h-8c-.3 0-.5.2-.5.5v2c0 .8-.7 1.5-1.5 1.5h-.5c-.3 0-.5-.2-.5-.5s.2-.5.5-.5h.5c.3 0 .5-.2.5-.5v-2c0-.8.7-1.5 1.5-1.5h8c.8 0 1.5.7 1.5 1.5v2c0 .3.2.5.5.5h.5c.3 0 .5.2.5.5s-.2.5-.5.5z" class="color4f5266 svgShape"/><path fill="#595bd4" d="M22.5 10h-.1c-.3-.1-.4-.3-.4-.6l.9-4.1c.2-1 0-2.1-.7-2.9-.6-.9-1.6-1.4-2.7-1.4h-5c-.8 0-1.5.7-1.5 1.5 0 .3-.2.5-.5.5s-.5-.2-.5-.5C12 1.1 13.1 0 14.5 0h5c1.4 0 2.7.6 3.5 1.7s1.2 2.5.9 3.8L23 9.6c-.1.2-.3.4-.5.4z" class="color4f5266 svgShape"/><path fill="#595bd4" d="M10 10h-.5c-.2 0-.4-.2-.5-.4L7.9 5.4c-.3-1.1 0-2.1.6-3S10.3 1 11.3 1h.2c.8 0 1.5.7 1.5 1.5 0 .3-.2.5-.5.5s-.5-.2-.5-.5-.2-.5-.5-.5h-.2c-.8 0-1.5.4-2 1s-.6 1.4-.4 2.1l1 3.9h.1c.3 0 .5.2.5.5s-.2.5-.5.5zm14.5 3h-2c-.3 0-.5-.2-.5-.5v-3c0-.3.2-.5.5-.5h1c.8 0 1.5.7 1.5 1.5v2c0 .3-.2.5-.5.5zM23 12h1v-1.5c0-.3-.2-.5-.5-.5H23v2z" class="color4f5266 svgShape"/><path fill="#595bd4" d="M21.5 16h-3c-.3 0-.5-.2-.5-.5s.2-.5.5-.5h3c1.4 0 2.5-1.1 2.5-2.5v-2c0-.3.2-.5.5-.5s.5.2.5.5v2c0 1.9-1.6 3.5-3.5 3.5zm-12-3h-1c-.8 0-1.5-.7-1.5-1.5v-1C7 9.7 7.7 9 8.5 9h1c.3 0 .5.2.5.5v3c0 .3-.2.5-.5.5zm-1-3c-.3 0-.5.2-.5.5v1c0 .3.2.5.5.5H9v-2h-.5z" class="color4f5266 svgShape"/><path fill="#595bd4" d="M17.5 17h-1c-.8 0-1.5-.7-1.5-1.5s.7-1.5 1.5-1.5h1c.8 0 1.5.7 1.5 1.5s-.7 1.5-1.5 1.5zm-1-2c-.3 0-.5.2-.5.5s.2.5.5.5h1c.3 0 .5-.2.5-.5s-.2-.5-.5-.5h-1z" class="color4f5266 svgShape"/></svg>