<svg xmlns="http://www.w3.org/2000/svg" viewBox="0 0 64 64"><rect width="46" height="25" x="9" y="34" fill="none" stroke="#595bd4" stroke-linecap="round" stroke-linejoin="round" stroke-width="2" class="colorStroke000000 svgStroke" rx="4" ry="4"/><path fill="none" stroke="#595bd4" stroke-linecap="round" stroke-linejoin="round" stroke-width="2" d="M39.09 40A5 5 0 0 0 32 40a5 5 0 0 0-7.09 0c-2 2-1.41 5.47.12 7.78s5.35 5.22 6.58 6.12a.65.65 0 0 0 .77 0c1.22-.9 5-3.79 6.58-6.12s2.04-5.84.13-7.78zM32 5a19 19 0 0 0-19 19v10h5V24a14 14 0 0 1 28 0v10h5V24A19 19 0 0 0 32 5z" class="colorStroke000000 svgStroke"/></svg>